<?xml version="1.0" encoding="utf-8"?>
<!-- Generator: Adobe Illustrator 23.0.6, SVG Export Plug-In . SVG Version: 6.00 Build 0)  -->
<svg version="1.1" id="Layer_1" xmlns="http://www.w3.org/2000/svg" xmlns:xlink="http://www.w3.org/1999/xlink" x="0px" y="0px"
	 viewBox="0 0 850.39 850.39" style="enable-background:new 0 0 850.39 850.39;" xml:space="preserve">
<style type="text/css">
	.st0{fill:#663366;}
	.st1{fill:#0D7B70;}
</style>
<g>
	<g>
		<path class="st0" d="M682.52,499.29h-8.86v-17.76c0-48.92-58.81-85.84-82.3-98.64c-0.08-1.67-0.6-3.28-1.54-4.66
			c4.02-2.57,6.51-6.96,6.51-11.7c0-4.75-2.49-9.13-6.51-11.71c1.01-1.5,1.57-3.26,1.57-5.07c0-3.19-1.66-6.1-4.38-7.79l-3.44-27.27
			c-0.11-0.87-0.85-1.53-1.73-1.53s-1.62,0.66-1.73,1.53l-3.44,27.27c-2.73,1.7-4.38,4.6-4.38,7.79c0,1.82,0.55,3.58,1.57,5.07
			c-4.01,2.57-6.51,6.96-6.51,11.71s2.49,9.13,6.51,11.7c-0.93,1.38-1.46,3-1.53,4.66c-23.48,12.8-82.3,49.72-82.3,98.64v17.76
			h-8.86c-2.16,0-3.9,1.75-3.9,3.9v38.05c0,2.16,1.75,3.9,3.9,3.9h4.43v77.27h34.93v-3.51c0-35.48,61.31-58.73,61.31-58.73
			s61.32,23.25,61.32,58.73v3.51h34.93v-77.27h4.43c2.16,0,3.9-1.75,3.9-3.9v-38.05C686.43,501.04,684.68,499.29,682.52,499.29z
			 M517.23,532.75h-5.63h-5.63v-12.73c0-5.04,3.13-8.35,5.63-8.35c2.5,0,5.63,3.3,5.63,8.35V532.75z M552.35,532.75h-5.63h-5.63
			v-12.73c0-5.04,3.13-8.35,5.63-8.35c2.5,0,5.63,3.3,5.63,8.35V532.75z M587.47,532.75h-5.63h-5.63v-12.73
			c0-5.04,3.13-8.35,5.63-8.35c2.5,0,5.63,3.3,5.63,8.35V532.75z M622.6,532.75h-5.63h-5.63v-12.73c0-5.04,3.13-8.35,5.63-8.35
			c2.5,0,5.63,3.3,5.63,8.35V532.75z M657.72,532.75h-5.64h-5.63v-12.73c0-5.04,3.13-8.35,5.63-8.35c2.5,0,5.64,3.3,5.64,8.35
			V532.75z"/>
		<g>
			<g>
				<path class="st1" d="M684.42,158.43h-59.98v-17.62c0-20.82-16.93-37.75-37.75-37.75c-20.82,0-37.75,16.93-37.75,37.75v17.62
					h-211.4v-17.62c0-20.82-16.93-37.75-37.75-37.75s-37.75,16.93-37.75,37.75v18.08c-1.07-0.3-2.19-0.47-3.35-0.47h-50.14
					c-34.69,0-62.92,28.22-62.92,62.92v214.34c0,6.95,5.63,12.58,12.58,12.58c6.95,0,12.58-5.63,12.58-12.58V288.04h453.65
					c6.95,0,12.58-5.63,12.58-12.58s-5.63-12.58-12.58-12.58H170.79v-41.53c0-20.82,16.93-37.75,37.75-37.75h50.14
					c1.16,0,2.29-0.17,3.35-0.47v16.19c0,20.82,16.93,37.75,37.75,37.75c20.82,0,37.75-16.93,37.75-37.75v-15.73h211.4v15.73
					c0,20.82,16.93,37.75,37.75,37.75c20.82,0,37.75-16.93,37.75-37.75v-15.73h59.98c20.82,0,37.75,16.93,37.75,37.75v478.17
					c0,12.49-10.16,22.66-22.66,22.66s-22.66-10.16-22.66-22.66v-32.55c0-6.95-5.63-12.58-12.58-12.58H517.9
					c-6.95,0-12.58,5.63-12.58,12.58s5.63,12.58,12.58,12.58h133.79v19.97c0,8.19,2.07,15.91,5.72,22.66H150.88
					c-12.49,0-22.65-10.16-22.65-22.65v-19.98h281.65c6.95,0,12.58-5.63,12.58-12.58s-5.63-12.58-12.58-12.58H284.15
					c21.99-18.94,35.95-46.95,35.95-78.18c0-56.9-46.29-103.18-103.18-103.18S113.73,519.3,113.73,576.2
					c0,31.23,13.96,59.24,35.95,78.18h-34.04c-6.95,0-12.58,5.63-12.58,12.58v32.56c0,26.37,21.45,47.82,47.82,47.82h548.63
					c26.37,0,47.82-21.45,47.82-47.82V221.34C747.33,186.65,719.11,158.43,684.42,158.43z M312.36,199.32
					c0,6.94-5.64,12.58-12.58,12.58s-12.58-5.64-12.58-12.58v-58.51c0-6.94,5.64-12.58,12.58-12.58s12.58,5.64,12.58,12.58V199.32z
					 M599.27,199.32c0,6.94-5.64,12.58-12.58,12.58c-6.94,0-12.58-5.64-12.58-12.58v-58.51c0-6.94,5.64-12.58,12.58-12.58
					c6.94,0,12.58,5.64,12.58,12.58V199.32z M138.9,576.2c0-43.02,35-78.02,78.02-78.02s78.02,35,78.02,78.02s-35,78.02-78.02,78.02
					S138.9,619.22,138.9,576.2z"/>
			</g>
		</g>
	</g>
	<g>
		<g>
			<path class="st0" d="M392.81,481.55c-25.52,0-46.29,20.76-46.29,46.29c0,25.52,20.76,46.29,46.29,46.29s46.29-20.76,46.29-46.29
				C439.09,502.32,418.33,481.55,392.81,481.55z M392.81,549.77c-12.09,0-21.93-9.84-21.93-21.93c0-12.09,9.84-21.93,21.93-21.93
				c12.09,0,21.93,9.84,21.93,21.93C414.73,539.93,404.9,549.77,392.81,549.77z"/>
		</g>
	</g>
	<g>
		<g>
			<path class="st0" d="M270.03,354.87c-25.52,0-46.29,20.76-46.29,46.29c0,25.52,20.76,46.29,46.29,46.29s46.29-20.76,46.29-46.29
				C316.31,375.64,295.55,354.87,270.03,354.87z M270.03,423.08c-12.09,0-21.93-9.84-21.93-21.93c0-12.09,9.84-21.93,21.93-21.93
				c12.09,0,21.93,9.84,21.93,21.93C291.95,413.25,282.12,423.08,270.03,423.08z"/>
		</g>
	</g>
	<g>
		<g>
			<path class="st0" d="M397.35,354.87c-25.52,0-46.29,20.76-46.29,46.29c0,25.52,20.76,46.29,46.29,46.29
				c25.52,0,46.29-20.76,46.29-46.29C443.64,375.64,422.87,354.87,397.35,354.87z M397.35,423.08c-12.09,0-21.93-9.84-21.93-21.93
				c0-12.09,9.84-21.93,21.93-21.93c12.09,0,21.93,9.84,21.93,21.93C419.28,413.25,409.44,423.08,397.35,423.08z"/>
		</g>
	</g>
	<g>
		<g>
			<path class="st0" d="M261.73,539.57c-4.76-4.76-12.47-4.76-17.23,0l-39.67,39.67l-13.56-13.56c-4.76-4.76-12.47-4.76-17.23,0
				c-4.76,4.76-4.76,12.47,0,17.23l22.17,22.17c2.29,2.28,5.38,3.57,8.61,3.57c3.23,0,6.33-1.28,8.61-3.57l48.28-48.28
				C266.49,552.04,266.49,544.33,261.73,539.57z"/>
		</g>
	</g>
</g>
</svg>
