<?xml version="1.0" encoding="utf-8"?>
<!-- Generator: Adobe Illustrator 23.0.6, SVG Export Plug-In . SVG Version: 6.00 Build 0)  -->
<svg version="1.1" id="Layer_1" xmlns="http://www.w3.org/2000/svg" xmlns:xlink="http://www.w3.org/1999/xlink" x="0px" y="0px"
	 viewBox="0 0 850.39 850.39" style="enable-background:new 0 0 850.39 850.39;" xml:space="preserve">
<style type="text/css">
	.st0{fill:#333333;}
	.st1{fill:#EF1F4B;}
	.st2{fill:#FFFFFF;}
</style>
<g>
	<path class="st0" d="M673.06,329.75l8.73-8.72c16.93-16.93,16.93-44.49,0-61.42l-24.71-24.71c-8.18-8.19-19.09-12.69-30.71-12.69
		c-11.62,0-22.53,4.51-30.71,12.69l-8.72,8.72c-8.14,8.14-12.63,18.96-12.68,30.51c-27.27-19.55-58.29-33.61-90.81-41.23
		c8.4-7.98,13.67-19.22,13.67-31.7v-45.86c0-24.14-19.64-43.77-43.77-43.77h-56.28c-24.14,0-43.77,19.64-43.77,43.77v45.86
		c0,12.47,5.27,23.72,13.67,31.7c-32.52,7.62-63.54,21.67-90.81,41.23c-0.05-11.54-4.55-22.37-12.68-30.5l-8.72-8.72
		c-8.18-8.19-19.09-12.69-30.71-12.69s-22.53,4.51-30.71,12.69l-24.72,24.72c-16.93,16.93-16.93,44.49,0,61.42l8.72,8.72
		c8.18,8.18,19.09,12.69,30.71,12.69c0.9,0,1.79-0.08,2.69-0.13c-20.03,30.6-33.43,65.36-38.92,101.36
		c-1.95,12.77-2.94,25.83-2.94,38.83c0,13,0.99,26.06,2.94,38.83c6.19,40.58,22.4,79.59,46.86,112.82
		c15.44,20.98,33.91,39.45,54.89,54.89c33.23,24.46,72.24,40.66,112.82,46.86c12.77,1.95,25.83,2.94,38.83,2.94
		s26.06-0.99,38.83-2.94c40.58-6.19,79.59-22.4,112.82-46.86c20.98-15.44,39.45-33.91,54.89-54.89
		c24.46-33.23,40.66-72.24,46.86-112.82c1.95-12.77,2.94-25.83,2.94-38.83c0-13-0.99-26.06-2.94-38.83
		c-5.5-36.01-18.89-70.77-38.92-101.36c0.89,0.05,1.78,0.13,2.69,0.13C653.97,342.44,664.88,337.93,673.06,329.75z"/>
	<g>
		<g>
			<path class="st1" d="M660.05,518.5c-5.91,38.68-21.18,74.32-43.42,104.53c-14.3,19.43-31.48,36.61-50.91,50.91
				c-30.21,22.24-65.84,37.51-104.53,43.42c-11.74,1.79-23.76,2.72-36,2.72s-24.25-0.93-36-2.72
				c-38.68-5.91-74.32-21.18-104.53-43.42c-19.43-14.3-36.61-31.48-50.91-50.91c-22.24-30.21-37.51-65.85-43.42-104.53
				c-1.79-11.74-2.72-23.76-2.72-36c0-12.23,0.93-24.25,2.72-36c5.91-38.68,21.18-74.32,43.42-104.53
				c14.3-19.43,31.48-36.61,50.91-50.91c30.21-22.24,65.85-37.51,104.53-43.42c11.74-1.79,23.76-2.72,36-2.72s24.25,0.93,36,2.72
				c38.68,5.91,74.32,21.18,104.53,43.42c19.43,14.3,36.61,31.48,50.91,50.91c22.24,30.21,37.51,65.85,43.42,104.53
				c1.79,11.74,2.72,23.76,2.72,36C662.77,494.74,661.84,506.76,660.05,518.5z"/>
			<path class="st2" d="M250.2,291.77l-24.71,24.71c-9.6,9.6-25.3,9.6-34.89,0l-8.72-8.72c-9.6-9.6-9.6-25.3,0-34.89l24.71-24.71
				c9.6-9.6,25.3-9.6,34.89,0l8.72,8.72C259.8,266.47,259.8,282.17,250.2,291.77z"/>
			<path class="st2" d="M600.19,291.77l24.71,24.71c9.6,9.6,25.3,9.6,34.89,0l8.72-8.72c9.6-9.6,9.6-25.3,0-34.89l-24.71-24.71
				c-9.6-9.6-25.3-9.6-34.89,0l-8.72,8.72C590.6,266.47,590.6,282.17,600.19,291.77z"/>
			<g>
				<g>
					<path class="st2" d="M545.11,582.21H305.29c-21.85,0-39.63-17.78-39.63-39.63V402.37c0-21.85,17.78-39.63,39.63-39.63h239.82
						c21.85,0,39.63,17.78,39.63,39.63v114.81c0,4.81-3.9,8.71-8.71,8.71c-4.81,0-8.71-3.9-8.71-8.71V402.37
						c0-12.25-9.96-22.21-22.21-22.21H305.29c-12.25,0-22.21,9.96-22.21,22.21v140.21c0,12.25,9.96,22.21,22.21,22.21h239.82
						c4.81,0,8.71,3.9,8.71,8.71C553.81,578.31,549.92,582.21,545.11,582.21z"/>
					<path class="st2" d="M312.04,488.14v-25.35c0-16.45,10.23-22.57,23.43-22.57c13.2,0,23.53,6.12,23.53,22.57v25.35
						c0,16.45-10.33,22.57-23.53,22.57C322.27,510.71,312.04,504.59,312.04,488.14z M344.08,462.79c0-6.6-3.25-9.57-8.61-9.57
						c-5.36,0-8.51,2.97-8.51,9.57v25.35c0,6.6,3.16,9.57,8.51,9.57c5.36,0,8.61-2.96,8.61-9.57
						C344.08,488.14,344.08,462.79,344.08,462.79z"/>
					<path class="st2" d="M362.86,488.14v-25.35c0-16.45,10.23-22.57,23.43-22.57s23.53,6.12,23.53,22.57v25.35
						c0,16.45-10.33,22.57-23.53,22.57S362.86,504.59,362.86,488.14z M394.9,462.79c0-6.6-3.25-9.57-8.61-9.57
						c-5.36,0-8.51,2.97-8.51,9.57v25.35c0,6.6,3.16,9.57,8.51,9.57c5.36,0,8.61-2.96,8.61-9.57V462.79z"/>
					<path class="st2" d="M429.79,477.14c0,3.92-3.35,7.37-7.27,7.37c-4.21,0-7.37-3.44-7.37-7.37c0-4.02,3.16-7.37,7.37-7.37
						C426.44,469.77,429.79,473.12,429.79,477.14z M429.79,503.35c0,3.92-3.35,7.37-7.27,7.37c-4.21,0-7.37-3.44-7.37-7.37
						c0-4.02,3.16-7.37,7.37-7.37C426.44,495.98,429.79,499.33,429.79,503.35z"/>
					<path class="st2" d="M436.96,488.14v-25.35c0-16.45,10.23-22.57,23.43-22.57s23.53,6.12,23.53,22.57v25.35
						c0,16.45-10.33,22.57-23.53,22.57S436.96,504.59,436.96,488.14z M469.01,462.79c0-6.6-3.25-9.57-8.61-9.57
						c-5.36,0-8.51,2.97-8.51,9.57v25.35c0,6.6,3.16,9.57,8.51,9.57c5.36,0,8.61-2.96,8.61-9.57V462.79z"/>
					<path class="st2" d="M491.39,488.14v-25.35c0-16.45,10.23-22.57,23.43-22.57c13.2,0,23.53,6.12,23.53,22.57v25.35
						c0,16.45-10.33,22.57-23.53,22.57C501.62,510.71,491.39,504.59,491.39,488.14z M523.43,462.79c0-6.6-3.25-9.57-8.61-9.57
						s-8.51,2.97-8.51,9.57v25.35c0,6.6,3.16,9.57,8.51,9.57c5.36,0,8.61-2.96,8.61-9.57V462.79z"/>
				</g>
			</g>
		</g>
		<path class="st2" d="M453.34,226.21h-56.28c-13.76,0-25.01-11.26-25.01-25.01v-45.86c0-13.76,11.26-25.01,25.01-25.01h56.28
			c13.76,0,25.01,11.26,25.01,25.01v45.86C478.35,214.95,467.09,226.21,453.34,226.21z"/>
	</g>
</g>
</svg>
