<?xml version="1.0" encoding="utf-8"?>
<!-- Generator: Adobe Illustrator 23.0.6, SVG Export Plug-In . SVG Version: 6.00 Build 0)  -->
<svg version="1.1" id="Layer_1" xmlns="http://www.w3.org/2000/svg" xmlns:xlink="http://www.w3.org/1999/xlink" x="0px" y="0px"
	 viewBox="0 0 850.39 850.39" style="enable-background:new 0 0 850.39 850.39;" xml:space="preserve">
<style type="text/css">
	.st0{fill:url(#SVGID_1_);}
	.st1{opacity:0.3;fill:#5B5B5F;enable-background:new    ;}
	.st2{fill:#FFFFFF;}
</style>
<g>
	<g>
		<linearGradient id="SVGID_1_" gradientUnits="userSpaceOnUse" x1="144.746" y1="425.1968" x2="705.6477" y2="425.1968">
			<stop  offset="0" style="stop-color:#00F38D"/>
			<stop  offset="1" style="stop-color:#009EFF"/>
		</linearGradient>
		<circle class="st0" cx="425.2" cy="425.2" r="280.45"/>
		<path class="st1" d="M425.2,155.95v268.26h263.47C688.67,424.21,683.88,182.29,425.2,155.95z"/>
		<path class="st1" d="M425.2,692.47V424.21H161.72C161.72,424.21,166.51,666.13,425.2,692.47z"/>
		<path class="st2" d="M425.2,180.83c134.74,0,244.37,109.62,244.37,244.37S559.94,669.56,425.2,669.56S180.83,559.94,180.83,425.2
			S290.45,180.83,425.2,180.83 M425.2,141.73c-156.55,0-283.46,126.91-283.46,283.46S268.65,708.66,425.2,708.66
			S708.66,581.75,708.66,425.2S581.75,141.73,425.2,141.73L425.2,141.73z"/>
		<g>
			<path class="st2" d="M425.2,201.6c-5.34,0-9.67,4.32-9.67,9.67v9.67c0,5.35,4.33,9.67,9.67,9.67c5.34,0,9.67-4.32,9.67-9.67
				v-9.67C434.87,205.92,430.54,201.6,425.2,201.6z"/>
			<path class="st2" d="M425.2,617.44c-5.34,0-9.67,4.32-9.67,9.67v9.67c0,5.35,4.33,9.67,9.67,9.67c5.34,0,9.67-4.32,9.67-9.67
				v-9.67C434.87,621.76,430.54,617.44,425.2,617.44z"/>
			<path class="st2" d="M637.95,414.36h-9.67c-5.34,0-9.67,4.32-9.67,9.67s4.33,9.67,9.67,9.67h9.67c5.34,0,9.67-4.32,9.67-9.67
				S643.29,414.36,637.95,414.36z"/>
			<path class="st2" d="M222.11,414.36h-9.67c-5.34,0-9.67,4.32-9.67,9.67s4.33,9.67,9.67,9.67h9.67c5.34,0,9.67-4.32,9.67-9.67
				S227.45,414.36,222.11,414.36z"/>
		</g>
		<g>
			<path class="st2" d="M396.18,433.7h-77.37c-5.34,0-9.67-4.33-9.67-9.67s4.33-9.67,9.67-9.67h77.37c5.34,0,9.67,4.33,9.67,9.67
				S401.53,433.7,396.18,433.7z"/>
		</g>
		<g>
			<path class="st2" d="M425.2,404.69c-5.34,0-9.67-4.33-9.67-9.67V288.64c0-5.34,4.33-9.67,9.67-9.67c5.34,0,9.67,4.33,9.67,9.67
				v106.38C434.87,400.35,430.54,404.69,425.2,404.69z"/>
		</g>
		<g>
			<path class="st2" d="M425.2,462.71c-21.33,0-38.68-17.35-38.68-38.68c0-21.33,17.35-38.68,38.68-38.68
				c21.33,0,38.68,17.35,38.68,38.68C463.88,445.36,446.53,462.71,425.2,462.71z M425.2,404.69c-10.66,0-19.34,8.68-19.34,19.34
				c0,10.66,8.68,19.34,19.34,19.34c10.67,0,19.34-8.68,19.34-19.34C444.54,413.36,435.86,404.69,425.2,404.69z"/>
		</g>
		<g id="surface1">
			<path class="st2" d="M568.62,397.1c11.79-38.33,8.04-79.75-10.43-115.34l7.71-12.85h8.21v-6.75h-28.02
				c-7.51-10.34-16.31-19.69-26.18-27.81l-14.51-11.9c-0.03-0.02-0.06-0.03-0.08-0.05c-0.02-0.02-0.01-0.04-0.02-0.04l-12.14-9.11
				v-11.81h-6.75v67.46h-3.37c-5.59,0-10.12,4.53-10.12,10.12c0,5.59,4.53,10.12,10.12,10.12h3.37V397.1h-10.12v6.75h107.94v-6.75
				H568.62z M499.89,292.54V397.1h-6.75V289.16h3.37c1.15-0.01,2.29-0.22,3.37-0.62V292.54z M496.52,282.41h-13.49
				c-1.86,0-3.37-1.51-3.37-3.37c0-1.86,1.51-3.38,3.37-3.38h13.49c1.86,0,3.37,1.51,3.37,3.38
				C499.89,280.9,498.38,282.41,496.52,282.41z M499.89,238.56v30.98c-1.08-0.4-2.22-0.61-3.37-0.62h-3.37V221.7l6.75,5.06V238.56z
				 M558.03,268.92l-3.6,6c-1.18-2.02-2.4-4.05-3.68-6H558.03z M506.64,247.26l5.27,5.78c2.7,2.95,5.21,6.02,7.63,9.14h-12.91
				V247.26z M506.64,268.92h17.88c1.52,2.21,2.96,4.47,4.36,6.75h-22.23V268.92z M506.64,282.41h26.1c1.21,2.22,2.36,4.47,3.44,6.75
				h-29.54V282.41z M529.75,302.65l8.43-6.75h1.05c0.94,2.23,1.85,4.48,2.67,6.75H529.75z M544.13,309.4
				c0.7,2.24,1.34,4.48,1.92,6.75h-33.17l8.43-6.75H544.13z M506.64,295.91h20.74l-8.43,6.75h-12.31V295.91z M506.64,309.4h3.88
				l-3.88,3.1V309.4z M506.64,322.89h41.05c0.47,2.24,0.88,4.49,1.25,6.75h-42.3V322.89z M550.15,338.82
				c0.15,1.44,0.28,2.87,0.38,4.31h-8.48L550.15,338.82z M506.64,336.39h33.73l-12.65,6.75h-21.08V336.39z M506.64,349.88h8.43
				l-8.43,4.5V349.88z M506.64,376.87h33.73l-12.65,6.75h-21.08V376.87z M506.64,394.86v-4.5h8.43L506.64,394.86z M544.57,397.1
				h-27.81l12.65-6.75h17.07C545.91,392.62,545.25,394.86,544.57,397.1z M547.94,383.61h-5.88l6.63-3.54
				C548.48,381.25,548.19,382.43,547.94,383.61L547.94,383.61z M550.1,370.12h-43.46v-6.74h43.99
				C550.49,365.62,550.35,367.87,550.1,370.12L550.1,370.12z M550.87,356.63h-34.12l12.65-6.75h21.49c0.06,2.25,0.03,4.5-0.01,6.75
				H550.87z M561.55,397.1h-9.88c14.95-52.22,1.79-108.45-34.78-148.62l-10.25-11.23v-5.06l8.98,7.38
				C561.77,277.71,579.97,340.14,561.55,397.1L561.55,397.1z"/>
		</g>
		<g id="surface1_1_">
			<path class="st2" d="M298.02,446.22c0-1.58-1.28-2.85-2.85-2.85h-5.7c-7.87,0.01-14.25,6.39-14.26,14.26v2.85h-5.7v5.7h5.7v35.64
				c0.01,3.59,1.7,6.96,4.56,9.12l18.16,13.63l-2.76,46.94c-0.09,1.57,1.11,2.92,2.68,3.01c0.06,0,0.11,0.01,0.17,0h3.94l-2.85,5.7
				h-12.49v5.7h3.94l1.76,3.52v15.76l-1.76,3.53h-3.94v5.7h62.73v-5.7h-3.94l-1.76-3.52v-15.76l1.76-3.52h3.94v-5.7h-14.26v-5.7
				h2.85c1.58,0,2.86-1.27,2.86-2.84c0-0.08,0-0.16-0.01-0.23l-2.69-33.99h5.54c1.19,0,2.25-0.74,2.67-1.85l0.37-1h5.51
				c1.31,0,2.45-0.89,2.77-2.16l2.85-11.4c0.38-1.53-0.55-3.08-2.07-3.46c-0.23-0.06-0.46-0.09-0.69-0.09h-1.94l1.77-4.7
				c0.55-1.47-0.2-3.12-1.67-3.67c-0.32-0.12-0.66-0.18-1-0.18h-16.51c-0.91-4.68-4.13-8.58-8.56-10.37
				c1.46-1.94,2.24-4.31,2.25-6.73v-5.7h5.7v-5.7h-5.7v-2.85c-0.01-0.46-0.13-0.91-0.36-1.31l5.23-5.23l-4.03-4.03l-5.34,5.34
				c-1.25-0.75-2.62-1.29-4.05-1.59v-8.56h-5.7v8.56c-1.43,0.3-2.79,0.84-4.05,1.59l-5.34-5.34l-4.03,4.03l5.23,5.23
				c-0.23,0.4-0.35,0.85-0.36,1.31v2.85h-5.7v5.7h5.7v5.7c0.01,2.01,0.56,3.98,1.59,5.7h-6.34l-9.5-7.13v-3.1l2.02-2.02
				c0.53-0.53,0.84-1.26,0.84-2.02v-8.55c0-1.57-1.28-2.85-2.85-2.85v-5.7h5.7v-5.7h-2.92c1.89-2.45,2.91-5.46,2.92-8.56V446.22z
				 M280.91,457.63c0-4.72,3.83-8.55,8.55-8.55h2.85v2.85c0,4.72-3.83,8.56-8.56,8.56h-2.85V457.63z M289.47,482.11l-2.02,2.02
				c-0.54,0.53-0.83,1.26-0.84,2.01v14.26c0,1.57-1.28,2.85-2.85,2.85c-1.58,0-2.85-1.28-2.85-2.85v-22.81h8.56V482.11z
				 M296.8,516.59c4.2-1.8,6.92-5.92,6.93-10.49v-2.85h18.06c0.74,0.01,1.48,0.11,2.19,0.31l-23.04,16.13L296.8,516.59z
				 M330.12,509.89c-0.02,0.02-0.03,0.05-0.05,0.08c-0.21,0.25-0.39,0.53-0.51,0.84l-2.75,7.33l-24.03,21l0.86-14.38l25.27-17.68
				C329.49,507.94,329.9,508.89,330.12,509.89z M321.34,536.24c0.53,0.77,1.41,1.23,2.34,1.23h1.01l-23.06,21.29l0.68-11.64
				l20.27-17.72l-1.58,4.21C320.69,534.49,320.81,535.47,321.34,536.24z M301.16,566.97l31.28-28.88l0.71,9.03l-19.3,21.71h-12.8
				L301.16,566.97z M334.86,568.83h-13.38l12.29-13.82L334.86,568.83z M338.23,607.18l0.79,1.58h-42.08l0.79-1.58
				c0.2-0.4,0.3-0.83,0.3-1.27V588.8c0-0.44-0.1-0.88-0.3-1.28l-0.79-1.58h42.1l-0.79,1.58c-0.2,0.4-0.3,0.83-0.3,1.28v17.11
				C337.94,606.35,338.04,606.78,338.23,607.18z M329.39,580.24h-23.9l2.85-5.7h21.05V580.24z M349.97,528.92h-5.52l1.42-5.7h5.53
				L349.97,528.92z M347.02,517.51h-3.37c-1.31,0-2.45,0.89-2.77,2.16l-2.85,11.4c-0.06,0.23-0.08,0.46-0.08,0.69H327.8l6.41-17.11
				h13.87L347.02,517.51z M312.28,478.62c3.15-3.15,8.25-3.15,11.4,0v1.82h-11.4V478.62z M312.28,491.85v-5.7h11.4v5.7
				c0,3.15-2.55,5.7-5.7,5.7C314.83,497.55,312.28,495,312.28,491.85z M298.02,501.83v4.28c0,3.15-2.55,5.7-5.7,5.7h-1.9l-4.25-3.19
				c0.21-0.06,0.4-0.15,0.6-0.23c0.2-0.07,0.32-0.11,0.48-0.18c0.38-0.17,0.74-0.37,1.09-0.59c0.08-0.05,0.17-0.09,0.25-0.15
				c0.42-0.28,0.8-0.61,1.16-0.96c0.1-0.1,0.19-0.22,0.28-0.32c0.25-0.27,0.48-0.55,0.7-0.84c0.11-0.15,0.2-0.31,0.29-0.46
				c0.17-0.28,0.33-0.57,0.47-0.88c0.08-0.17,0.16-0.34,0.23-0.52c0.13-0.33,0.23-0.67,0.31-1.01c0.04-0.17,0.09-0.32,0.13-0.49
				c0.11-0.52,0.16-1.06,0.17-1.59v-2.85L298.02,501.83z M286.62,471.89h-5.7v-5.7h5.7V471.89z"/>
			<path class="st2" d="M315.13,591.65h5.7v8.55h-5.7V591.65z"/>
			<path class="st2" d="M303.72,591.65h5.7v8.55h-5.7V591.65z"/>
			<path class="st2" d="M326.54,591.65h5.7v8.55h-5.7V591.65z"/>
		</g>
		<g id="surface1_2_">
			<path class="st2" d="M205.52,373.48c-1.1,1.41-0.84,3.44,0.57,4.54c0.57,0.44,1.27,0.68,1.98,0.68h187.62
				c1.79,0,3.23-1.45,3.23-3.23c0-0.74-0.26-1.46-0.72-2.04l-42.04-51.74c-1.22-1.38-3.34-1.52-4.72-0.29
				c-0.11,0.09-0.2,0.19-0.3,0.29l-10.29,12.66l-14.35-17.73c0.42-0.33,0.75-0.75,0.97-1.24c0.52-1.16,0.32-2.51-0.51-3.46
				l-22.64-25.87c-1.25-1.34-3.36-1.41-4.7-0.15c-0.05,0.05-0.1,0.1-0.15,0.15l-22.63,25.87c-1.18,1.34-1.04,3.39,0.31,4.56
				c0.08,0.07,0.16,0.13,0.24,0.19l-10.6,13.11l-10.79-14.45c-0.61-0.81-1.55-1.28-2.56-1.29c-1,0.03-1.94,0.49-2.59,1.25
				L205.52,373.48z M353.66,328.86l35.24,43.37h-17.42l-26.47-32.74L353.66,328.86z M285.23,317.27h19.93v-6.47H286.4l15.52-17.72
				l15.52,17.72h-5.82v6.47h7.11l19.61,24.25l24.82,30.72h-64.61l-27.76-37.12l1.37-1.68h13.58v-6.47h-8.37L285.23,317.27z
				 M264.12,336.97l26.37,35.26h-75.8l38.68-49.64L264.12,336.97z"/>
			<path class="st2" d="M292.22,326.97h12.93v6.47h-12.93V326.97z"/>
			<path class="st2" d="M314.86,339.9h12.93v6.47h-12.93V339.9z"/>
			<path class="st2" d="M327.79,359.3h12.93v6.47h-12.93V359.3z"/>
			<path class="st2" d="M301.92,352.83h12.93v6.47h-12.93V352.83z"/>
			<path class="st2" d="M237.25,349.6h12.93v6.47h-12.93V349.6z"/>
			<path class="st2" d="M250.19,356.07h12.93v6.46h-12.93V356.07z"/>
			<path class="st2" d="M327.79,272c0,12.5,10.13,22.63,22.63,22.63c12.5,0,22.63-10.13,22.63-22.63s-10.13-22.63-22.63-22.63
				C337.93,249.38,327.8,259.5,327.79,272z M350.42,255.83c8.93,0,16.17,7.24,16.17,16.17c0,8.93-7.24,16.17-16.17,16.17
				c-8.93,0-16.17-7.24-16.17-16.17C334.26,263.07,341.5,255.84,350.42,255.83z"/>
		</g>
		<g id="surface1_3_">
			<path class="st2" d="M529.68,544.71v-14.47c0-1.67-1.35-3.01-3.02-3.01h-3.28l-5.77-63.44v-11.91c0-1.67-1.35-3.01-3.01-3.01
				h-3.01v-15.07h-6.03v15.07h-3.01c-1.67,0-3.01,1.35-3.01,3.01v11.91l-5.77,63.44h-3.28c-1.67,0-3.01,1.35-3.01,3.01v14.47
				l-26.14,63.89h-7.02v6.03h36.17v-6.03h-4.86l5.97-17.9c3.13-9.38,13.26-14.44,22.64-11.32c5.34,1.78,9.53,5.97,11.32,11.32
				l5.97,17.9h-4.86v6.03h36.17v-6.03h-7.02L529.68,544.71z M525.35,550.04l-13.75,6.48v-8.19h13.05L525.35,550.04z M527.63,555.63
				l5.71,13.95l-17.68-8.32L527.63,555.63z M505.57,556.51l-13.75-6.47l0.71-1.72h13.05V556.51z M501.5,561.26l-17.68,8.32
				l5.71-13.95L501.5,561.26z M505.57,566.02v6.42h-13.64L505.57,566.02z M511.59,566.02l13.64,6.42h-13.64V566.02z M513.23,482.02
				h-9.29l1.37-15.07h6.55L513.23,482.02z M503.39,488.04h10.39l1.37,15.07h-13.13L503.39,488.04z M505.57,454.89h6.03v6.03h-6.03
				V454.89z M501.47,509.14h14.22l1.64,18.08h-17.5L501.47,509.14z M493.51,533.25h30.14v9.04h-30.14V533.25z M467.86,608.6
				l4.93-12.06h10.51l-4.02,12.06H467.86z M485.89,588.79l-0.58,1.73h-10.05l4.93-12.05h12.6
				C489.61,581.23,487.23,584.8,485.89,588.79z M524.37,578.46h12.6l4.93,12.05h-10.06l-0.58-1.73
				C529.92,584.8,527.54,581.23,524.37,578.46z M537.88,608.6l-4.02-12.06h10.51l4.93,12.06H537.88z"/>
		</g>
	</g>
</g>
</svg>
