<?xml version="1.0" encoding="utf-8"?>
<!-- Generator: Adobe Illustrator 23.0.6, SVG Export Plug-In . SVG Version: 6.00 Build 0)  -->
<svg version="1.1" id="Layer_1" xmlns="http://www.w3.org/2000/svg" xmlns:xlink="http://www.w3.org/1999/xlink" x="0px" y="0px"
	 viewBox="0 0 850.39 850.39" style="enable-background:new 0 0 850.39 850.39;" xml:space="preserve">
<style type="text/css">
	.st0{fill:#FFFFFF;}
	.st1{fill:#EF1F4B;}
	.st2{fill:#333333;}
</style>
<g>
	<g>
		<g>
			<path class="st0" d="M146.65,382.34c-1.62-0.46-3.59-0.79-5.9-1c-2.32-0.2-4.66-0.3-7.03-0.3c-6.25,0-11.17,1.62-14.76,4.86
				c-3.59,3.24-5.38,7.73-5.38,13.45v1.91c0,2.95,0.38,5.48,1.13,7.6c0.75,2.11,1.71,3.81,2.86,5.08H98.9
				c-4.4,0-7.96-0.39-10.68-1.17c-2.72-0.78-4.85-1.92-6.38-3.43c-1.53-1.5-2.56-3.34-3.08-5.51c-0.52-2.17-0.78-4.64-0.78-7.42
				c0-0.98,0.01-1.94,0.04-2.86c0.03-0.92,0.1-2.05,0.22-3.39c0.17-1.16-0.26-1.74-1.3-1.74H73.3c-0.52,0-0.9,0.13-1.13,0.39
				c-0.23,0.26-0.41,0.71-0.52,1.35c-0.35,1.68-0.56,3.15-0.65,4.43c-0.09,1.27-0.13,2.52-0.13,3.73c0,3.7,0.42,6.99,1.26,9.85
				c0.84,2.87,2.31,5.28,4.43,7.25c2.11,1.97,4.95,3.46,8.51,4.47c3.56,1.01,8.03,1.52,13.41,1.52h33.42c2.2,0,4.44-0.01,6.73-0.04
				c2.29-0.03,4.64-0.16,7.07-0.39c1.27-0.12,1.94-0.66,2-1.65c0.06-0.87,0.09-1.82,0.09-2.86l0.09-3.21
				c0.06-1.16,0.09-2.29,0.09-3.39v-3.21v-22.74c0-0.46-0.09-0.81-0.26-1.04C147.52,382.63,147.17,382.46,146.65,382.34z
				 M140.66,413.85c-1.27,0.12-2.66,0.19-4.17,0.22c-1.51,0.03-2.92,0.04-4.25,0.04c-3.94,0-6.81-1.08-8.64-3.25
				c-1.82-2.17-2.73-5.28-2.73-9.33v-1.91c0-3.76,1.04-6.65,3.13-8.68c2.08-2.02,5.12-3.04,9.11-3.04c1.5,0,2.85,0.03,4.04,0.09
				c1.19,0.06,2.36,0.17,3.52,0.35V413.85z"/>
			<path class="st0" d="M130.42,371.49h3.73c0.58,0,1.06-0.17,1.43-0.52c0.38-0.35,0.56-0.78,0.56-1.3v-4.69
				c0-0.58-0.19-1.04-0.56-1.39c-0.38-0.35-0.82-0.52-1.34-0.52h-3.82c-0.52,0-0.99,0.17-1.39,0.52c-0.41,0.35-0.61,0.81-0.61,1.39
				v4.69c0,0.52,0.19,0.96,0.56,1.3C129.36,371.32,129.84,371.49,130.42,371.49z"/>
			<path class="st0" d="M206.76,370.97c0.43,0.35,0.91,0.52,1.43,0.52h3.38c0.52,0,0.98-0.17,1.39-0.52c0.4-0.35,0.61-0.78,0.61-1.3
				v-4.69c0-0.58-0.2-1.04-0.61-1.39c-0.41-0.35-0.87-0.52-1.39-0.52h-3.38c-0.52,0-1,0.17-1.43,0.52
				c-0.43,0.35-0.65,0.81-0.65,1.39v4.69C206.11,370.19,206.33,370.62,206.76,370.97z"/>
			<path class="st0" d="M193.96,371.49h3.38c0.52,0,0.98-0.17,1.39-0.52c0.4-0.35,0.61-0.78,0.61-1.3v-4.69
				c0-0.58-0.19-1.04-0.56-1.39c-0.38-0.35-0.85-0.52-1.43-0.52h-3.38c-0.58,0-1.06,0.17-1.43,0.52c-0.38,0.35-0.56,0.81-0.56,1.39
				v4.69c0,0.52,0.19,0.96,0.56,1.3C192.9,371.32,193.38,371.49,193.96,371.49z"/>
			<path class="st0" d="M228.5,429.48h-3.39c-0.58,0-1.06,0.17-1.43,0.52c-0.38,0.35-0.56,0.81-0.56,1.39v4.69
				c0,0.46,0.19,0.88,0.56,1.26c0.38,0.38,0.85,0.56,1.43,0.56h3.39c0.52,0,0.98-0.19,1.39-0.56c0.4-0.38,0.61-0.8,0.61-1.26v-4.69
				c0-0.58-0.19-1.04-0.56-1.39C229.56,429.65,229.08,429.48,228.5,429.48z"/>
			<path class="st0" d="M240.66,420.54c0.69-0.29,1.17-0.64,1.43-1.04c0.26-0.4,0.45-0.9,0.56-1.48c0.17-1.33,0.27-3.18,0.3-5.56
				c0.03-2.37,0.04-4.95,0.04-7.73v-4.51v-3.65c0-1.16-0.01-2.4-0.04-3.73c-0.03-1.33-0.07-2.98-0.13-4.95
				c0-0.46-0.15-0.85-0.43-1.17s-0.69-0.48-1.22-0.48h-4.17c-0.46,0-0.82,0.16-1.08,0.48c-0.26,0.32-0.39,0.71-0.39,1.17
				c0.06,2.26,0.1,4.34,0.13,6.25c0.03,1.91,0.04,3.76,0.04,5.56v5.38v5.73c0,1.51-0.23,2.4-0.69,2.69
				c-0.46,0.29-1.53,0.43-3.21,0.43h-5.55h-0.52h-6.94v-30.04c0-0.46-0.09-0.81-0.26-1.04c-0.17-0.23-0.55-0.4-1.13-0.52
				c-1.62-0.46-3.57-0.79-5.86-1c-2.29-0.2-4.62-0.3-6.99-0.3c-6.31,0-11.24,1.62-14.8,4.86c-3.56,3.24-5.34,7.81-5.34,13.72v2.08
				c0,2.89,0.4,5.35,1.22,7.38c0.81,2.03,1.97,3.65,3.47,4.86h-10.94h-0.52h-1.65c-0.93,0-1.75-0.06-2.47-0.17
				c-0.72-0.11-1.33-0.35-1.82-0.69c-0.49-0.35-0.87-0.85-1.13-1.52c-0.26-0.66-0.39-1.58-0.39-2.73v-50.96
				c0-0.46-0.15-0.87-0.43-1.22c-0.29-0.35-0.67-0.52-1.13-0.52h-4.25c-0.46,0-0.85,0.17-1.17,0.52c-0.32,0.35-0.48,0.75-0.48,1.22
				v52.61c0,2.2,0.25,3.99,0.74,5.38c0.49,1.39,1.23,2.5,2.21,3.34c0.98,0.84,2.17,1.42,3.56,1.74c1.39,0.32,3.01,0.48,4.86,0.48
				h3.56h0.52h47.57h0.52h3.38c0.98,0,2.03-0.01,3.13-0.04c1.1-0.03,2.17-0.09,3.21-0.17c1.04-0.09,1.97-0.17,2.78-0.26
				C239.56,420.84,240.19,420.71,240.66,420.54z M211.49,414.11h-8.51c-3.88,0-6.73-1.07-8.55-3.21c-1.82-2.14-2.73-5.21-2.73-9.2
				v-1.82c0-3.99,1.04-6.99,3.13-8.98c2.08-2,5.12-3,9.11-3c1.5,0,2.85,0.03,4.04,0.09c1.18,0.06,2.36,0.17,3.52,0.35V414.11z"/>
			<path class="st0" d="M242.74,429.48h-3.39c-0.52,0-1,0.17-1.43,0.52c-0.43,0.35-0.65,0.81-0.65,1.39v4.69
				c0,0.46,0.22,0.88,0.65,1.26c0.43,0.38,0.91,0.56,1.43,0.56h3.39c0.52,0,0.98-0.19,1.39-0.56c0.4-0.38,0.61-0.8,0.61-1.26v-4.69
				c0-0.58-0.2-1.04-0.61-1.39C243.72,429.65,243.26,429.48,242.74,429.48z"/>
			<path class="st0" d="M297.08,356.13h-4.34c-0.46,0-0.85,0.17-1.17,0.52c-0.32,0.35-0.48,0.75-0.48,1.22v52.95
				c0,1.51-0.23,2.4-0.69,2.69c-0.46,0.29-1.53,0.43-3.21,0.43h-31.42c-1.1,0-1.65,0.52-1.65,1.56v4.43c0,0.98,0.55,1.48,1.65,1.48
				h28.82c1.1,0,2.23-0.01,3.39-0.04c1.16-0.03,2.29-0.09,3.39-0.17c1.1-0.09,2.08-0.17,2.95-0.26c0.87-0.09,1.53-0.22,2-0.39
				c0.69-0.29,1.16-0.64,1.39-1.04c0.23-0.4,0.4-0.9,0.52-1.48c0.11-1.22,0.2-2.6,0.26-4.17c0.06-1.56,0.09-3.53,0.09-5.9v-50.09
				c0-0.46-0.13-0.87-0.39-1.22C297.9,356.3,297.54,356.13,297.08,356.13z"/>
			<path class="st0" d="M267.39,406.13h4.08c1.04,0,1.56-0.55,1.56-1.65v-41.32c0-1.1-0.49-1.65-1.48-1.65h-4.17
				c-1.1,0-1.65,0.55-1.65,1.65v41.32C265.74,405.58,266.29,406.13,267.39,406.13z"/>
			<path class="st0" d="M274.77,438.85h-5.82c-0.46-0.23-0.9-0.74-1.3-1.52c-0.41-0.78-0.61-1.78-0.61-3c0-2.6,1.53-3.91,4.6-3.91
				c0.29,0,0.78,0.01,1.48,0.04c0.69,0.03,1.1,0.04,1.22,0.04c0.75,0,1.13-0.32,1.13-0.95v-1.22c0-0.46-0.32-0.81-0.96-1.04
				c-0.58-0.12-1.16-0.2-1.74-0.26c-0.58-0.06-1.1-0.09-1.56-0.09c-2.6,0-4.62,0.56-6.03,1.69c-1.42,1.13-2.13,2.91-2.13,5.34
				c0,0.87,0.12,1.75,0.35,2.65c0.23,0.9,0.61,1.66,1.13,2.3h-1.48c-1.04,0-1.56,0.29-1.56,0.87v1.48c0,0.69,0.52,1.04,1.56,1.04
				h11.72c0.46,0,0.83-0.06,1.08-0.17c0.26-0.12,0.39-0.41,0.39-0.87v-1.39C276.25,439.2,275.75,438.85,274.77,438.85z"/>
			<path class="st0" d="M319.74,356.13h-4.25c-0.46,0-0.85,0.17-1.17,0.52c-0.32,0.35-0.48,0.75-0.48,1.22v61.81
				c0,0.46,0.16,0.87,0.48,1.22c0.32,0.35,0.71,0.52,1.17,0.52h4.25c0.46,0,0.84-0.17,1.13-0.52c0.29-0.35,0.43-0.75,0.43-1.22
				v-61.81c0-0.46-0.15-0.87-0.43-1.22C320.57,356.3,320.2,356.13,319.74,356.13z"/>
			<path class="st0" d="M378.29,371.15c0.43,0.35,0.91,0.52,1.43,0.52h3.38c0.52,0,0.98-0.17,1.39-0.52c0.4-0.35,0.61-0.78,0.61-1.3
				v-4.69c0-0.58-0.2-1.04-0.61-1.39c-0.41-0.35-0.87-0.52-1.39-0.52h-3.38c-0.52,0-1,0.17-1.43,0.52
				c-0.43,0.35-0.65,0.81-0.65,1.39v4.69C377.64,370.36,377.85,370.8,378.29,371.15z"/>
			<path class="st0" d="M365.48,371.67h3.38c0.52,0,0.98-0.17,1.39-0.52c0.4-0.35,0.61-0.78,0.61-1.3v-4.69
				c0-0.58-0.19-1.04-0.56-1.39c-0.38-0.35-0.85-0.52-1.43-0.52h-3.38c-0.58,0-1.06,0.17-1.43,0.52c-0.38,0.35-0.56,0.81-0.56,1.39
				v4.69c0,0.52,0.19,0.95,0.56,1.3C364.43,371.49,364.9,371.67,365.48,371.67z"/>
			<path class="st0" d="M437.1,414.33c-0.35-0.26-0.75-0.39-1.22-0.39h-17.45c-1.68-0.64-3.11-2.11-4.3-4.43
				c-1.19-2.31-1.78-5.01-1.78-8.07v-1.04c0-4.28,1.23-7.36,3.69-9.25c2.46-1.88,5.83-2.82,10.11-2.82c1.5,0,2.83,0.03,3.99,0.09
				c1.16,0.06,2.46,0.15,3.91,0.26c0.46,0.06,0.9-0.01,1.3-0.22c0.4-0.2,0.61-0.62,0.61-1.26v-3.47c0-0.58-0.17-0.97-0.52-1.17
				c-0.35-0.2-0.84-0.36-1.48-0.48c-1.91-0.29-3.55-0.46-4.9-0.52c-1.36-0.06-2.62-0.09-3.78-0.09c-2.9,0-5.57,0.36-8.03,1.08
				c-2.46,0.73-4.6,1.84-6.42,3.34c-1.82,1.51-3.24,3.4-4.25,5.69c-1.01,2.29-1.52,4.96-1.52,8.03v0.96c0,3.12,0.33,5.82,1,8.07
				c0.66,2.26,1.58,4.02,2.73,5.3h-10.42h-0.52h-1.48c-1.85,0-3.33-0.33-4.43-1c-1.1-0.66-1.65-2.16-1.65-4.47v-24.39
				c0-0.46-0.07-0.82-0.22-1.08c-0.15-0.26-0.51-0.45-1.09-0.56c-0.64-0.17-1.39-0.33-2.26-0.48c-0.87-0.14-1.78-0.27-2.73-0.39
				c-0.95-0.11-1.92-0.2-2.91-0.26c-0.98-0.06-1.85-0.09-2.6-0.09c-3.3,0-6.32,0.36-9.07,1.08c-2.75,0.72-5.12,1.85-7.12,3.39
				c-2,1.53-3.55,3.52-4.64,5.95c-1.1,2.43-1.65,5.35-1.65,8.77v2.26c0,5.61,1.45,9.9,4.34,12.85c2.89,2.95,7.03,4.43,12.41,4.43
				h0.78c2.43,0,4.67-0.27,6.73-0.83c2.05-0.55,3.57-1.46,4.56-2.73c0.92,1.85,2.27,3.15,4.04,3.91c1.76,0.75,3.95,1.13,6.55,1.13
				h2.43h0.52h37.5c0.46,0,0.87-0.11,1.22-0.35c0.35-0.23,0.52-0.58,0.52-1.04v-4.6C437.62,414.95,437.44,414.59,437.1,414.33z
				 M383.02,408.13c0,0.93-0.23,1.69-0.69,2.3c-0.46,0.61-1.07,1.09-1.82,1.43c-0.75,0.35-1.59,0.58-2.52,0.69
				c-0.93,0.12-1.82,0.17-2.69,0.17h-1.65c-3.76,0-6.42-0.97-7.99-2.91c-1.56-1.94-2.34-4.64-2.34-8.12v-1.82
				c0-2.31,0.36-4.24,1.09-5.77c0.72-1.53,1.71-2.75,2.95-3.65c1.24-0.9,2.73-1.52,4.47-1.87c1.74-0.35,3.65-0.52,5.73-0.52
				c0.75,0,1.56,0.03,2.43,0.09c0.87,0.06,1.88,0.15,3.04,0.26V408.13z"/>
			<path class="st0" d="M525.16,391.02c-0.03-1.56-0.07-3.33-0.13-5.3c0-0.46-0.15-0.85-0.43-1.17c-0.29-0.32-0.69-0.48-1.22-0.48
				h-4.08c-0.46,0-0.84,0.16-1.13,0.48c-0.29,0.32-0.43,0.71-0.43,1.17c0.11,4.51,0.17,8.85,0.17,13.02v12.24
				c0,0.81-0.04,1.42-0.13,1.82c-0.09,0.41-0.27,0.71-0.56,0.91c-0.29,0.2-0.68,0.32-1.17,0.35c-0.49,0.03-1.17,0.04-2.04,0.04
				h-2.78c-0.75,0-1.53-0.03-2.34-0.09c-0.81-0.06-1.58-0.16-2.3-0.3c-0.72-0.14-1.34-0.35-1.87-0.61
				c-0.52-0.26-0.87-0.62-1.04-1.08v-23c0-0.46-0.15-0.85-0.43-1.17c-0.29-0.32-0.67-0.48-1.13-0.48h-3.99
				c-0.46,0-0.85,0.16-1.17,0.48c-0.32,0.32-0.48,0.71-0.48,1.17v21.96c0,0.69-0.2,1.25-0.61,1.65c-0.41,0.41-0.88,0.71-1.43,0.91
				c-0.55,0.2-1.16,0.35-1.82,0.43c-0.67,0.09-1.26,0.13-1.78,0.13h-1.91c-0.52,0-1.13-0.03-1.82-0.09
				c-0.69-0.06-1.38-0.16-2.04-0.3c-0.67-0.14-1.27-0.35-1.82-0.61c-0.55-0.26-0.91-0.62-1.08-1.08v-20.05
				c0-0.46-0.15-0.87-0.43-1.22c-0.29-0.35-0.67-0.52-1.13-0.52h-3.99c-0.46,0-0.84,0.17-1.13,0.52c-0.29,0.35-0.43,0.75-0.43,1.22
				v18.75c0,0.75-0.22,1.35-0.65,1.78c-0.43,0.43-0.96,0.75-1.56,0.96c-0.61,0.2-1.26,0.33-1.95,0.39
				c-0.69,0.06-1.33,0.09-1.91,0.09h-2.78h-0.52h-1.65c-0.93,0-1.75-0.06-2.47-0.17c-0.72-0.11-1.33-0.35-1.82-0.69
				c-0.49-0.35-0.87-0.85-1.13-1.52c-0.26-0.66-0.39-1.58-0.39-2.73v-50.96c0-0.46-0.15-0.87-0.43-1.22
				c-0.29-0.35-0.67-0.52-1.13-0.52h-4.25c-0.46,0-0.85,0.17-1.17,0.52c-0.32,0.35-0.48,0.75-0.48,1.22v52.61
				c0,2.2,0.25,3.99,0.74,5.38c0.49,1.39,1.23,2.5,2.21,3.34c0.98,0.84,2.17,1.42,3.56,1.74c1.39,0.32,3.01,0.48,4.86,0.48h3.56
				h0.52h2.08c1.79,0,3.67-0.19,5.64-0.56c1.97-0.38,3.65-1.14,5.04-2.3c1.33,1.16,2.92,1.92,4.77,2.3
				c1.85,0.38,3.67,0.56,5.47,0.56h1.48c2.02,0,3.92-0.23,5.69-0.69c1.76-0.46,3.23-1.18,4.38-2.17c1.5,1.16,3.3,1.91,5.38,2.26
				c2.08,0.35,4.17,0.52,6.25,0.52h1.39c1.85,0,3.6-0.07,5.25-0.22c1.65-0.14,2.94-0.36,3.86-0.65c0.69-0.29,1.17-0.64,1.43-1.04
				c0.26-0.4,0.45-0.92,0.56-1.56c0.06-0.69,0.11-1.48,0.17-2.34c0.06-0.87,0.1-1.75,0.13-2.65c0.03-0.9,0.04-1.78,0.04-2.65v-2.34
				v-3.12v-4.78v-4.43C525.2,394.09,525.19,392.59,525.16,391.02z"/>
		</g>
		<g>
			<path class="st1" d="M106.26,491.41c-1.08-1.36-2.47-2.73-4.18-4.09c-1.71-1.36-3.78-2.79-6.23-4.26l-7.85-4.69
				c-3.24-1.93-5.6-3.64-7.08-5.12c-1.48-1.48-2.22-3.21-2.22-5.2c0-3.13,0.98-5.26,2.94-6.4c1.96-1.14,5.16-1.71,9.6-1.71
				c2.5,0,5.1,0.06,7.8,0.17c2.7,0.11,4.99,0.23,6.87,0.34h0.17c0.97,0,1.45-0.45,1.45-1.36v-3.67c0-0.8-0.48-1.28-1.45-1.45
				c-0.8-0.11-1.79-0.24-2.99-0.38c-1.19-0.14-2.46-0.26-3.8-0.34c-1.34-0.08-2.7-0.16-4.09-0.21c-1.39-0.06-2.72-0.08-3.97-0.08
				c-6.54,0-11.57,1.22-15.1,3.67c-3.53,2.45-5.29,6.26-5.29,11.43c0,3.41,0.98,6.33,2.94,8.74c1.96,2.42,4.9,4.82,8.83,7.21
				l8.27,5.03c1.93,1.19,3.55,2.26,4.86,3.2c1.31,0.94,2.36,1.83,3.16,2.69c0.8,0.85,1.36,1.72,1.71,2.6
				c0.34,0.88,0.51,1.86,0.51,2.94c0,1.48-0.2,2.84-0.6,4.09c-0.4,1.25-1.08,2.32-2.05,3.2c-0.97,0.88-2.29,1.56-3.97,2.05
				c-1.68,0.48-3.8,0.73-6.35,0.73c-0.97,0-2.08,0-3.33,0l-3.75-0.08c-1.25-0.06-2.49-0.11-3.71-0.17
				c-1.22-0.06-2.32-0.14-3.28-0.26h-0.26c-0.4,0-0.74,0.11-1.02,0.34c-0.29,0.23-0.43,0.57-0.43,1.02v3.41
				c0,0.46,0.09,0.8,0.26,1.02c0.17,0.23,0.63,0.4,1.36,0.51c1.88,0.29,3.95,0.55,6.23,0.81c2.27,0.26,4.92,0.38,7.93,0.38
				c4.21,0,7.68-0.5,10.41-1.49c2.73-0.99,4.88-2.3,6.44-3.92c1.56-1.62,2.66-3.45,3.28-5.5c0.63-2.05,0.94-4.09,0.94-6.14
				c0-1.71-0.23-3.3-0.68-4.78C108.11,494.19,107.34,492.77,106.26,491.41z"/>
			<path class="st1" d="M147.63,511.45h-4.78c-1.71,0-2.9-0.31-3.58-0.94c-0.68-0.63-1.02-2.1-1.02-4.44v-29.77h9.21
				c0.46,0,0.85-0.17,1.19-0.51c0.34-0.34,0.51-0.74,0.51-1.19v-2.9c0-0.45-0.17-0.85-0.51-1.19c-0.34-0.34-0.74-0.51-1.19-0.51
				h-9.21v-9.3c0-0.46-0.13-0.81-0.38-1.07c-0.26-0.26-0.55-0.38-0.9-0.38h-0.26l-4.44,0.68c-1.02,0.17-1.54,0.74-1.54,1.71V470
				h-8.27c-1.08,0-1.62,0.51-1.62,1.54v2.3c0,0.91,0.54,1.42,1.62,1.54l8.27,0.94v29.77c0,2.33,0.24,4.24,0.73,5.71
				c0.48,1.48,1.19,2.64,2.13,3.5c0.94,0.85,2.13,1.44,3.58,1.75c1.45,0.31,3.17,0.47,5.16,0.47c0.8,0,1.71-0.04,2.73-0.13
				c1.02-0.08,1.96-0.19,2.81-0.3c1.02-0.17,1.54-0.65,1.54-1.45v-2.98C149.42,511.85,148.82,511.45,147.63,511.45z"/>
			<path class="st1" d="M196.24,475.12c-1.59-1.82-3.58-3.23-5.97-4.22c-2.39-0.99-5.15-1.49-8.27-1.49c-3.13,0-5.87,0.5-8.23,1.49
				c-2.36,1-4.34,2.4-5.93,4.22c-1.59,1.82-2.79,4.01-3.58,6.57c-0.8,2.56-1.19,5.4-1.19,8.53v6.48c0,3.13,0.4,5.97,1.19,8.53
				c0.8,2.56,1.99,4.75,3.58,6.57c1.59,1.82,3.57,3.23,5.93,4.22c2.36,0.99,5.1,1.49,8.23,1.49c3.13,0,5.88-0.5,8.27-1.49
				c2.39-0.99,4.38-2.4,5.97-4.22c1.59-1.82,2.79-4.01,3.58-6.57c0.79-2.56,1.19-5.4,1.19-8.53v-6.48c0-3.13-0.4-5.97-1.19-8.53
				C199.03,479.12,197.83,476.94,196.24,475.12z M193.51,496.69c0,4.44-0.93,7.92-2.77,10.45c-1.85,2.53-4.76,3.79-8.74,3.79
				c-4.04,0-6.95-1.28-8.74-3.84c-1.79-2.56-2.69-6.03-2.69-10.4v-6.48c0-4.44,0.91-7.92,2.73-10.45c1.82-2.53,4.72-3.8,8.7-3.8
				c4.04,0,6.96,1.28,8.78,3.84c1.82,2.56,2.73,6.03,2.73,10.41V496.69z"/>
			<path class="st1" d="M251.17,475.16c-1.54-1.85-3.47-3.27-5.8-4.26c-2.33-0.99-5.09-1.49-8.27-1.49c-2.62,0-5.32,0.19-8.1,0.55
				c-2.79,0.37-5.32,0.84-7.59,1.41c-0.8,0.17-1.29,0.4-1.49,0.68c-0.2,0.29-0.3,0.71-0.3,1.28V532c0,0.45,0.14,0.84,0.43,1.15
				c0.28,0.31,0.65,0.47,1.11,0.47h4.35c0.45,0,0.84-0.16,1.15-0.47c0.31-0.31,0.47-0.7,0.47-1.15v-15.44
				c1.65,0.29,3.4,0.51,5.25,0.68c1.85,0.17,3.42,0.26,4.73,0.26c6.25,0,10.92-1.8,13.99-5.42c3.07-3.61,4.61-8.77,4.61-15.48v-6.14
				c0-3.18-0.37-6.07-1.11-8.66C253.84,479.22,252.7,477.01,251.17,475.16z M248.18,496.61c0,2.27-0.18,4.32-0.55,6.14
				c-0.37,1.82-0.98,3.36-1.83,4.61c-0.85,1.25-1.99,2.2-3.41,2.86c-1.42,0.65-3.18,0.98-5.29,0.98c-1.37,0-3.01-0.07-4.95-0.21
				c-1.93-0.14-3.61-0.35-5.03-0.64v-33.77c1.19-0.23,2.7-0.43,4.52-0.6c1.82-0.17,3.64-0.26,5.46-0.26c2.1,0,3.87,0.36,5.29,1.07
				c1.42,0.71,2.56,1.71,3.41,2.99c0.85,1.28,1.46,2.83,1.83,4.65c0.37,1.82,0.55,3.84,0.55,6.06V496.61z"/>
			<path class="st1" d="M334.49,453.54h-4.95c-0.8,0-1.28,0.48-1.45,1.45l-8.27,54.33c-0.11,0.46-0.17,0.78-0.17,0.98
				c0,0.2-0.09,0.3-0.26,0.3c-0.23,0-0.43-0.43-0.6-1.28l-8.36-31.56c-0.57-2.27-1.91-3.41-4.01-3.41h-5.46
				c-2.1,0-3.44,1.14-4.01,3.41l-8.36,31.56c-0.17,0.85-0.37,1.28-0.6,1.28c-0.17,0-0.26-0.1-0.26-0.3c0-0.2-0.06-0.52-0.17-0.98
				l-8.27-54.33c-0.17-0.97-0.66-1.45-1.45-1.45h-4.95c-0.97,0-1.45,0.48-1.45,1.45v0.26l9.47,57.66c0.28,1.76,0.9,2.93,1.83,3.5
				c0.94,0.57,2.09,0.85,3.45,0.85h3.58c1.19,0,2.22-0.38,3.07-1.15c0.85-0.77,1.45-1.8,1.79-3.11l8.44-31.56
				c0.11-0.4,0.2-0.63,0.26-0.68c0.06-0.06,0.14-0.09,0.26-0.09h0.17c0.11,0,0.2,0.03,0.25,0.09c0.06,0.06,0.14,0.29,0.26,0.68
				l8.36,31.56c0.34,1.31,0.94,2.35,1.79,3.11c0.85,0.77,1.88,1.15,3.07,1.15h3.67c1.36,0,2.52-0.29,3.45-0.85
				c0.94-0.57,1.55-1.73,1.83-3.5l9.47-57.66v-0.26C335.94,454.02,335.46,453.54,334.49,453.54z"/>
			<path class="st1" d="M366.99,469.4c-2.9,0-5.39,0.11-7.46,0.34c-2.08,0.23-4,0.48-5.76,0.77c-1.19,0.17-1.79,0.71-1.79,1.62v2.99
				c0,0.57,0.16,0.94,0.47,1.11c0.31,0.17,0.67,0.26,1.07,0.26h0.43c1.71-0.17,3.61-0.33,5.71-0.47c2.1-0.14,4.55-0.21,7.34-0.21
				c3.35,0,5.71,0.71,7.08,2.13c1.36,1.42,2.05,3.92,2.05,7.51v3.41h-6.31c-3.81,0-7.02,0.29-9.64,0.85
				c-2.62,0.57-4.73,1.44-6.35,2.6c-1.62,1.17-2.79,2.62-3.5,4.35c-0.71,1.73-1.07,3.74-1.07,6.01v1.02c0,2.67,0.38,4.89,1.15,6.65
				c0.77,1.76,1.79,3.19,3.07,4.26c1.28,1.08,2.76,1.83,4.43,2.26c1.68,0.43,3.43,0.64,5.25,0.64c2.39,0,4.66-0.4,6.82-1.19
				c2.16-0.8,4.26-1.79,6.31-2.98v1.88c0,0.46,0.17,0.85,0.51,1.19c0.34,0.34,0.74,0.51,1.19,0.51h3.92c0.45,0,0.85-0.17,1.19-0.51
				c0.34-0.34,0.51-0.74,0.51-1.19v-29.77c0-5-1.29-8.93-3.88-11.77C377.15,470.82,372.9,469.4,366.99,469.4z M376.12,507.95
				c-2.05,1.14-3.98,1.99-5.8,2.56c-1.82,0.57-3.73,0.85-5.71,0.85c-2.5,0-4.43-0.52-5.8-1.58c-1.36-1.05-2.05-3.11-2.05-6.18v-1.02
				c0-1.54,0.2-2.83,0.6-3.88c0.4-1.05,1.08-1.9,2.05-2.56c0.97-0.65,2.3-1.14,4.01-1.45s3.84-0.47,6.4-0.47h6.31V507.95z"/>
			<path class="st1" d="M424.82,511.45h-4.78c-1.71,0-2.9-0.31-3.58-0.94c-0.68-0.63-1.02-2.1-1.02-4.44v-29.77h9.21
				c0.46,0,0.85-0.17,1.19-0.51c0.34-0.34,0.51-0.74,0.51-1.19v-2.9c0-0.45-0.17-0.85-0.51-1.19c-0.34-0.34-0.74-0.51-1.19-0.51
				h-9.21v-9.3c0-0.46-0.13-0.81-0.38-1.07c-0.26-0.26-0.55-0.38-0.9-0.38h-0.26l-4.44,0.68c-1.02,0.17-1.54,0.74-1.54,1.71V470
				h-8.27c-1.08,0-1.62,0.51-1.62,1.54v2.3c0,0.91,0.54,1.42,1.62,1.54l8.27,0.94v29.77c0,2.33,0.24,4.24,0.73,5.71
				c0.48,1.48,1.19,2.64,2.13,3.5c0.94,0.85,2.13,1.44,3.58,1.75c1.45,0.31,3.17,0.47,5.16,0.47c0.8,0,1.71-0.04,2.73-0.13
				c1.02-0.08,1.96-0.19,2.81-0.3c1.02-0.17,1.54-0.65,1.54-1.45v-2.98C426.61,511.85,426.01,511.45,424.82,511.45z"/>
			<path class="st1" d="M469.51,470.34c-1.42-0.28-3.06-0.51-4.9-0.68c-1.85-0.17-3.77-0.26-5.76-0.26c-2.9,0-5.49,0.5-7.76,1.49
				c-2.27,1-4.18,2.39-5.71,4.18c-1.54,1.79-2.7,3.97-3.5,6.52c-0.8,2.56-1.19,5.4-1.19,8.53v6.65c0,3.13,0.4,5.97,1.19,8.53
				c0.8,2.56,1.98,4.73,3.54,6.52c1.56,1.79,3.47,3.19,5.71,4.18c2.25,0.99,4.82,1.49,7.72,1.49c1.99,0,3.91-0.08,5.76-0.26
				c1.85-0.17,3.48-0.4,4.9-0.68c0.68-0.11,1.14-0.31,1.36-0.6c0.23-0.28,0.34-0.71,0.34-1.28v-3.07c0-0.45-0.14-0.78-0.43-0.98
				c-0.29-0.2-0.63-0.3-1.02-0.3h-0.34c-1.88,0.23-3.58,0.38-5.12,0.47c-1.54,0.08-3.36,0.13-5.46,0.13c-3.47,0-6.11-1.15-7.93-3.45
				c-1.82-2.3-2.73-5.87-2.73-10.7v-6.65c0-4.83,0.92-8.4,2.77-10.7c1.85-2.3,4.48-3.45,7.89-3.45c2.1,0,3.92,0.04,5.46,0.13
				c1.54,0.08,3.24,0.24,5.12,0.47h0.34c0.4,0,0.74-0.1,1.02-0.3c0.28-0.2,0.43-0.53,0.43-0.98v-3.07c0-0.63-0.11-1.07-0.34-1.32
				C470.65,470.64,470.19,470.45,469.51,470.34z"/>
			<path class="st1" d="M524.09,479.08c-0.74-2.25-1.79-4.08-3.16-5.5c-1.36-1.42-2.99-2.47-4.86-3.16
				c-1.88-0.68-3.95-1.02-6.23-1.02c-1.82,0-3.94,0.21-6.35,0.64c-2.42,0.43-4.65,1.1-6.69,2v-17.57c0-0.45-0.16-0.85-0.47-1.19
				c-0.31-0.34-0.7-0.51-1.15-0.51h-4.26c-0.46,0-0.84,0.17-1.15,0.51c-0.31,0.34-0.47,0.74-0.47,1.19v60.73
				c0,0.46,0.16,0.85,0.47,1.19c0.31,0.34,0.7,0.51,1.15,0.51h4.18c0.45,0,0.85-0.17,1.19-0.51c0.34-0.34,0.51-0.74,0.51-1.19
				v-36.85c0.91-0.4,1.92-0.75,3.03-1.07c1.11-0.31,2.2-0.57,3.28-0.77c1.08-0.2,2.09-0.34,3.03-0.43c0.94-0.09,1.75-0.13,2.43-0.13
				c2.79,0,5,0.8,6.65,2.39c1.65,1.59,2.47,4.52,2.47,8.79v28.06c0,0.46,0.17,0.85,0.51,1.19c0.34,0.34,0.74,0.51,1.19,0.51h4.09
				c0.45,0,0.85-0.17,1.19-0.51c0.34-0.34,0.51-0.74,0.51-1.19v-28.06C525.2,484.02,524.83,481.33,524.09,479.08z"/>
		</g>
	</g>
	<g>
		<path class="st0" d="M770.33,384.24l3.74-3.74c7.27-7.27,7.27-19.09,0-26.36l-10.61-10.61c-3.51-3.51-8.19-5.45-13.18-5.45
			c-4.99,0-9.67,1.93-13.18,5.45l-3.74,3.74c-3.49,3.49-5.42,8.14-5.44,13.09c-11.7-8.39-25.02-14.42-38.97-17.69
			c3.6-3.42,5.87-8.25,5.87-13.6v-19.68c0-10.36-8.43-18.79-18.79-18.79h-24.15c-10.36,0-18.79,8.43-18.79,18.79v19.68
			c0,5.35,2.26,10.18,5.87,13.6c-13.95,3.27-27.27,9.3-38.97,17.69c-0.02-4.95-1.95-9.6-5.44-13.09l-3.74-3.74
			c-3.51-3.51-8.19-5.45-13.18-5.45c-4.99,0-9.67,1.93-13.18,5.45l-10.61,10.61c-7.27,7.27-7.27,19.09,0,26.36l3.74,3.74
			c3.51,3.51,8.19,5.45,13.18,5.45c0.39,0,0.77-0.03,1.15-0.06c-8.6,13.13-14.34,28.05-16.7,43.5c-0.84,5.48-1.26,11.09-1.26,16.66
			c0,5.58,0.42,11.18,1.26,16.66c2.66,17.41,9.61,34.15,20.11,48.41c6.63,9,14.55,16.93,23.56,23.56
			c14.26,10.5,31,17.45,48.41,20.11c5.48,0.84,11.09,1.26,16.66,1.26c5.58,0,11.18-0.42,16.66-1.26
			c17.41-2.66,34.15-9.61,48.41-20.11c9-6.63,16.93-14.55,23.56-23.56c10.5-14.26,17.45-31,20.11-48.41
			c0.84-5.48,1.26-11.09,1.26-16.66c0-5.58-0.42-11.18-1.26-16.66c-2.36-15.45-8.11-30.37-16.7-43.5c0.38,0.02,0.77,0.06,1.15,0.06
			C762.14,389.68,766.82,387.75,770.33,384.24z"/>
		<g>
			<g>
				<path class="st1" d="M764.75,465.24c-2.53,16.6-9.09,31.89-18.63,44.86c-6.14,8.34-13.51,15.71-21.85,21.85
					c-12.96,9.54-28.26,16.1-44.86,18.63c-5.04,0.77-10.2,1.17-15.45,1.17c-5.25,0-10.41-0.4-15.45-1.17
					c-16.6-2.53-31.89-9.09-44.86-18.63c-8.34-6.14-15.71-13.51-21.85-21.85c-9.54-12.96-16.1-28.26-18.63-44.86
					c-0.77-5.04-1.17-10.2-1.17-15.45c0-5.25,0.4-10.41,1.17-15.45c2.53-16.6,9.09-31.89,18.63-44.86
					c6.14-8.34,13.51-15.71,21.85-21.85c12.96-9.54,28.26-16.1,44.86-18.63c5.04-0.77,10.2-1.17,15.45-1.17
					c5.25,0,10.41,0.4,15.45,1.17c16.6,2.53,31.89,9.09,44.86,18.63c8.34,6.14,15.71,13.51,21.85,21.85
					c9.54,12.96,16.1,28.26,18.63,44.86c0.77,5.04,1.17,10.2,1.17,15.45C765.92,455.04,765.52,460.2,764.75,465.24z"/>
				<path class="st2" d="M588.87,367.94l-10.61,10.61c-4.12,4.12-10.86,4.12-14.97,0l-3.74-3.74c-4.12-4.12-4.12-10.86,0-14.97
					l10.61-10.61c4.12-4.12,10.86-4.12,14.97,0l3.74,3.74C592.98,357.08,592.98,363.82,588.87,367.94z"/>
				<path class="st2" d="M739.06,367.94l10.61,10.61c4.12,4.12,10.86,4.12,14.97,0l3.74-3.74c4.12-4.12,4.12-10.86,0-14.97
					l-10.61-10.61c-4.12-4.12-10.86-4.12-14.97,0l-3.74,3.74C734.94,357.08,734.94,363.82,739.06,367.94z"/>
				<g>
					<g>
						<path class="st2" d="M715.42,492.58H612.51c-9.38,0-17.01-7.63-17.01-17.01V415.4c0-9.38,7.63-17.01,17.01-17.01h102.92
							c9.38,0,17.01,7.63,17.01,17.01v49.27c0,2.06-1.67,3.74-3.74,3.74s-3.74-1.67-3.74-3.74V415.4c0-5.26-4.28-9.53-9.53-9.53
							H612.51c-5.26,0-9.53,4.28-9.53,9.53v60.17c0,5.26,4.28,9.53,9.53,9.53h102.92c2.06,0,3.74,1.67,3.74,3.74
							S717.49,492.58,715.42,492.58z"/>
						<path class="st2" d="M615.4,452.21v-10.88c0-7.06,4.39-9.69,10.06-9.69s10.1,2.63,10.1,9.69v10.88c0,7.06-4.43,9.69-10.1,9.69
							S615.4,459.27,615.4,452.21z M629.15,441.33c0-2.83-1.4-4.1-3.69-4.1c-2.3,0-3.65,1.27-3.65,4.1v10.88
							c0,2.83,1.35,4.1,3.65,4.1c2.3,0,3.69-1.27,3.69-4.1C629.15,452.21,629.15,441.33,629.15,441.33z"/>
						<path class="st2" d="M637.21,452.21v-10.88c0-7.06,4.39-9.69,10.06-9.69c5.66,0,10.1,2.63,10.1,9.69v10.88
							c0,7.06-4.43,9.69-10.1,9.69C641.6,461.9,637.21,459.27,637.21,452.21z M650.96,441.33c0-2.83-1.4-4.1-3.69-4.1
							c-2.3,0-3.65,1.27-3.65,4.1v10.88c0,2.83,1.35,4.1,3.65,4.1c2.3,0,3.69-1.27,3.69-4.1V441.33z"/>
						<path class="st2" d="M665.93,447.49c0,1.68-1.44,3.16-3.12,3.16c-1.81,0-3.16-1.48-3.16-3.16c0-1.72,1.35-3.16,3.16-3.16
							C664.5,444.33,665.93,445.76,665.93,447.49z M665.93,458.74c0,1.68-1.44,3.16-3.12,3.16c-1.81,0-3.16-1.48-3.16-3.16
							c0-1.72,1.35-3.16,3.16-3.16C664.5,455.57,665.93,457.01,665.93,458.74z"/>
						<path class="st2" d="M669.01,452.21v-10.88c0-7.06,4.39-9.69,10.06-9.69c5.66,0,10.1,2.63,10.1,9.69v10.88
							c0,7.06-4.43,9.69-10.1,9.69C673.4,461.9,669.01,459.27,669.01,452.21z M682.76,441.33c0-2.83-1.4-4.1-3.69-4.1
							c-2.3,0-3.65,1.27-3.65,4.1v10.88c0,2.83,1.35,4.1,3.65,4.1c2.3,0,3.69-1.27,3.69-4.1V441.33z"/>
						<path class="st2" d="M692.37,452.21v-10.88c0-7.06,4.39-9.69,10.06-9.69s10.1,2.63,10.1,9.69v10.88
							c0,7.06-4.43,9.69-10.1,9.69C696.76,461.9,692.37,459.27,692.37,452.21z M706.12,441.33c0-2.83-1.4-4.1-3.69-4.1
							c-2.3,0-3.65,1.27-3.65,4.1v10.88c0,2.83,1.35,4.1,3.65,4.1c2.3,0,3.69-1.27,3.69-4.1V441.33z"/>
					</g>
				</g>
			</g>
			<path class="st2" d="M676.04,339.8h-24.15c-5.9,0-10.73-4.83-10.73-10.73v-19.68c0-5.9,4.83-10.73,10.73-10.73h24.15
				c5.9,0,10.73,4.83,10.73,10.73v19.68C686.77,334.97,681.94,339.8,676.04,339.8z"/>
		</g>
	</g>
</g>
</svg>
