<?xml version="1.0" encoding="utf-8"?>
<!-- Generator: Adobe Illustrator 23.0.6, SVG Export Plug-In . SVG Version: 6.00 Build 0)  -->
<svg version="1.1" id="Layer_1" xmlns="http://www.w3.org/2000/svg" xmlns:xlink="http://www.w3.org/1999/xlink" x="0px" y="0px"
	 viewBox="0 0 850.39 850.39" style="enable-background:new 0 0 850.39 850.39;" xml:space="preserve">
<style type="text/css">
	.st0{fill:#CCCCCC;}
	.st1{fill:#36B2B2;}
	.st2{fill:#FFFFFF;}
	.st3{fill:#EBEBEB;}
	.st4{fill:#FF6666;}
</style>
<g>
	<polygon class="st0" points="476.53,424.98 343.35,422.76 333.06,693.13 359.48,678.76 618.36,678.31 618.36,596.53 613.72,566.25 
		594.23,505.7 567.36,468.45 510.48,435.05 	"/>
	<path class="st0" d="M334.91,175.37c0,0-6.76,130.07,20.51,158.75c27.26,28.68,59.74,89.89,96.85,90.84s87.78-25.72,101.14-30.28
		c13.36-4.56,54.02-80.74,54.02-80.74l10.93-70.83v-67.74H334.91z"/>
	<path class="st1" d="M676.35,169.8H273.47c-10.85,0-19.64-8.79-19.64-19.64v0c0-10.85,8.79-19.64,19.64-19.64h402.88
		c10.85,0,19.64,8.79,19.64,19.64v0C695.99,161.01,687.2,169.8,676.35,169.8z"/>
	<polygon class="st1" points="333.33,717.73 324.97,674.58 665.06,678.91 695.99,687.37 695.99,707.55 652.07,719.53 	"/>
	<g>
		<g>
			<circle class="st1" cx="375.6" cy="647" r="10.09"/>
			<circle class="st1" cx="415.97" cy="647" r="10.09"/>
			<circle class="st1" cx="456.34" cy="647" r="10.09"/>
			<circle class="st1" cx="496.71" cy="647" r="10.09"/>
			<circle class="st1" cx="537.08" cy="647" r="10.09"/>
			<circle class="st1" cx="577.45" cy="647" r="10.09"/>
			<circle class="st1" cx="395.78" cy="626.81" r="10.09"/>
			<circle class="st1" cx="436.15" cy="626.81" r="10.09"/>
			<circle class="st1" cx="476.53" cy="455.23" r="10.09"/>
			<circle class="st1" cx="415.97" cy="344.21" r="10.09"/>
			<circle class="st1" cx="456.34" cy="344.21" r="10.09"/>
			<circle class="st1" cx="496.71" cy="344.21" r="10.09"/>
			<circle class="st1" cx="537.08" cy="344.21" r="10.09"/>
			<circle class="st1" cx="516.9" cy="324.03" r="10.09"/>
			<circle class="st1" cx="537.08" cy="303.84" r="10.09"/>
			<circle class="st1" cx="436.15" cy="324.03" r="10.09"/>
			<circle class="st1" cx="476.53" cy="324.03" r="10.09"/>
			<circle class="st1" cx="415.97" cy="303.84" r="10.09"/>
			<circle class="st1" cx="436.15" cy="364.4" r="10.09"/>
			<circle class="st1" cx="456.34" cy="384.58" r="10.09"/>
			<circle class="st1" cx="496.71" cy="384.58" r="10.09"/>
			<circle class="st1" cx="476.53" cy="364.4" r="10.09"/>
			<circle class="st1" cx="516.9" cy="364.4" r="10.09"/>
			<circle class="st1" cx="476.53" cy="485.51" r="10.09"/>
			<circle class="st1" cx="476.53" cy="515.79" r="10.09"/>
			<circle class="st1" cx="476.53" cy="546.07" r="10.09"/>
			<circle class="st1" cx="476.53" cy="576.35" r="10.09"/>
			<circle class="st1" cx="476.53" cy="606.63" r="10.09"/>
			<circle class="st1" cx="516.9" cy="626.81" r="10.09"/>
			<circle class="st1" cx="557.27" cy="626.81" r="10.09"/>
		</g>
		<g>
			<path class="st2" d="M607.73,667.18c0-0.84-0.11-1.65-0.31-2.44C607.55,665.6,607.66,666.42,607.73,667.18z"/>
			<path class="st2" d="M678.38,667.18h-50.46v-60.56c0-76.61-41.86-145.74-108.13-181.67c66.28-35.93,108.13-105.06,108.13-181.67
				v-60.56h50.46c16.69,0,30.28-13.58,30.28-30.28s-13.58-30.28-30.28-30.28H274.67c-16.69,0-30.28,13.58-30.28,30.28
				s13.58,30.28,30.28,30.28h50.46v60.56c0,76.61,41.86,145.74,108.13,181.67c-66.28,35.93-108.13,105.06-108.13,181.67v60.56
				h-50.46c-16.69,0-30.28,13.59-30.28,30.28c0,16.69,13.58,30.28,30.28,30.28h403.71c16.69,0,30.28-13.59,30.28-30.28
				C708.66,680.77,695.08,667.18,678.38,667.18z M274.67,162.54c-5.56,0-10.09-4.52-10.09-10.09c0-5.57,4.53-10.09,10.09-10.09
				h403.71c5.56,0,10.09,4.52,10.09,10.09c0,5.57-4.53,10.09-10.09,10.09H274.67z M345.32,243.28v-60.56h262.41v60.56
				c0,74.96-44.32,142.09-113.07,171.58h-36.28C389.64,385.37,345.32,318.24,345.32,243.28z M345.32,606.63
				c0-74.96,44.32-142.09,113.07-171.58h36.28c68.74,29.49,113.06,96.62,113.06,171.58v60.56H345.32V606.63z M678.38,707.55H274.67
				c-5.56,0-10.09-4.52-10.09-10.09c0-5.57,4.53-10.09,10.09-10.09h403.71c5.56,0,10.09,4.52,10.09,10.09
				C688.48,703.03,683.94,707.55,678.38,707.55z"/>
			<path class="st2" d="M345.32,667.18c0,0,0.09-0.87,0.29-2.35C345.42,665.59,345.32,666.37,345.32,667.18z"/>
			<path class="st1" d="M597.64,657.09c-5.57,0-10.09,4.52-10.09,10.09h20.19c-0.08-0.76-0.18-1.58-0.31-2.44
				C606.33,660.35,602.37,657.09,597.64,657.09z"/>
			<path class="st1" d="M355.41,657.09c-4.76,0-8.74,3.31-9.81,7.74c-0.19,1.48-0.29,2.35-0.29,2.35h20.19
				C365.5,661.61,360.98,657.09,355.41,657.09z"/>
			<path class="st1" d="M436.15,657.09c-5.57,0-10.09,4.52-10.09,10.09h20.19C446.25,661.61,441.73,657.09,436.15,657.09z"/>
			<path class="st1" d="M395.78,657.09c-5.57,0-10.09,4.52-10.09,10.09h20.19C405.88,661.61,401.35,657.09,395.78,657.09z"/>
			<path class="st1" d="M557.27,657.09c-5.57,0-10.09,4.52-10.09,10.09h20.19C567.36,661.61,562.84,657.09,557.27,657.09z"/>
			<path class="st1" d="M516.9,657.09c-5.57,0-10.09,4.52-10.09,10.09h20.19C526.99,661.61,522.47,657.09,516.9,657.09z"/>
			<path class="st1" d="M476.53,657.09c-5.57,0-10.09,4.52-10.09,10.09h20.19C486.62,661.61,482.1,657.09,476.53,657.09z"/>
		</g>
	</g>
	<g>
		<path class="st3" d="M345.61,610.43c29.26-14.79,51.15-41.85,58.8-74.33c1.22,0.13,2.45,0.2,3.7,0.2
			c19.05,0,34.49-15.3,34.49-34.18s-15.44-34.18-34.49-34.18c-0.24,0-0.47,0.03-0.71,0.03v-10.59
			c0-61.87-50.62-112.03-113.06-112.03c-62.44,0-113.05,50.16-113.05,112.03v10.59c-0.24,0-0.48-0.03-0.72-0.03
			c-19.05,0-34.49,15.3-34.49,34.18c0,18.88,15.44,34.18,34.49,34.18c1.25,0,2.48-0.07,3.7-0.2c7.64,32.48,29.54,59.54,58.79,74.33
			c-0.01,0-0.02-0.01-0.03-0.01v23.3c0,0.73,0.1,1.44,0.24,2.15h-18.43c-31.84,0-57.66,25.81-57.66,57.66v30.36h254.3v-30.36
			c0-31.84-25.81-57.66-57.66-57.66h-18.32c-0.04,0-0.08-0.01-0.12-0.01l0,0.01h-0.01c0.14-0.73,0.24-1.47,0.24-2.22V610.43z
			 M298.79,622.5c-1.48,0.06-2.96,0.1-4.45,0.1c-1.49,0-2.97-0.04-4.44-0.1c1.47,0.06,2.95,0.1,4.44,0.1
			C295.83,622.6,297.31,622.56,298.79,622.5z M344.77,610.84c-0.94,0.46-1.88,0.92-2.84,1.36
			C342.88,611.76,343.83,611.3,344.77,610.84z M340.56,612.82c-0.97,0.43-1.95,0.85-2.94,1.26
			C338.61,613.67,339.59,613.25,340.56,612.82z M336.75,614.44c-1.22,0.49-2.45,0.95-3.7,1.4
			C334.3,615.39,335.53,614.93,336.75,614.44z M331.74,616.3c-0.99,0.35-1.99,0.68-3,0.99C329.75,616.98,330.75,616.65,331.74,616.3
			z M327.72,617.63c-1.29,0.39-2.59,0.76-3.9,1.11C325.13,618.39,326.43,618.02,327.72,617.63z M322.63,619.05
			c-1.05,0.27-2.1,0.52-3.16,0.76C320.53,619.57,321.58,619.31,322.63,619.05z M318.35,620.06c-1.36,0.29-2.72,0.56-4.09,0.8
			C315.63,620.62,316.99,620.35,318.35,620.06z M313.28,621.02c-1.14,0.19-2.28,0.36-3.43,0.52
			C311,621.38,312.14,621.21,313.28,621.02z M308.7,621.69c-1.42,0.18-2.85,0.34-4.28,0.46
			C305.85,622.03,307.28,621.87,308.7,621.69z M303.79,622.2c-1.27,0.1-2.54,0.18-3.82,0.25
			C301.25,622.39,302.52,622.31,303.79,622.2z M246.77,612.21c-1.02-0.47-2.03-0.95-3.04-1.45
			C244.74,611.25,245.75,611.74,246.77,612.21z M288.7,622.45c-1.26-0.06-2.52-0.14-3.77-0.24
			C286.18,622.31,287.44,622.39,288.7,622.45z M284.25,622.16c-1.42-0.13-2.84-0.28-4.24-0.46
			C281.41,621.87,282.83,622.03,284.25,622.16z M278.78,621.53c-1.1-0.15-2.2-0.32-3.3-0.5
			C276.58,621.21,277.68,621.38,278.78,621.53z M274.38,620.85c-1.35-0.24-2.68-0.5-4.01-0.78
			C271.7,620.35,273.04,620.61,274.38,620.85z M269.11,619.78c-0.99-0.22-1.98-0.46-2.96-0.71
			C267.13,619.32,268.12,619.56,269.11,619.78z M264.8,618.72c-1.27-0.34-2.54-0.7-3.79-1.08
			C262.26,618.02,263.53,618.38,264.8,618.72z M259.8,617.25c-0.94-0.3-1.87-0.61-2.79-0.93
			C257.93,616.65,258.86,616.96,259.8,617.25z M255.57,615.82c-1.17-0.42-2.33-0.86-3.48-1.32
			C253.24,614.96,254.4,615.4,255.57,615.82z M251.02,614.06c-0.98-0.4-1.95-0.82-2.92-1.25
			C249.07,613.24,250.04,613.66,251.02,614.06z"/>
		<path class="st2" d="M294.34,626.94c-53.61,0-99.73-35.3-113.41-86.3c-0.12,0-0.24,0-0.36,0c-21.41,0-38.84-17.28-38.84-38.53
			c0-20.03,15.49-36.54,35.21-38.36v-6.37c0-64.18,52.67-116.39,117.41-116.39s117.4,52.21,117.4,116.39v6.37
			c19.72,1.82,35.21,18.33,35.21,38.36c0,21.24-17.42,38.53-38.84,38.53c-0.12,0-0.24,0-0.37,0
			C394.07,591.64,347.96,626.94,294.34,626.94z M184.28,531.75c2,0,3.76,1.37,4.23,3.35c11.52,48.96,55.04,83.14,105.83,83.14
			s94.31-34.19,105.84-83.14c0.5-2.13,2.49-3.53,4.68-3.33c1.15,0.12,2.21,0.18,3.25,0.18c16.62,0,30.15-13.38,30.15-29.83
			c0-16.44-13.5-29.81-30.11-29.83c-0.3,0.02-0.48,0.03-0.67,0.03c-1.18,0-2.29-0.43-3.13-1.24c-0.83-0.82-1.3-1.94-1.3-3.1v-10.59
			c0-59.38-48.77-107.69-108.71-107.69s-108.71,48.31-108.71,107.69v10.59c0,1.17-0.47,2.28-1.3,3.1c-0.83,0.82-1.89,1.24-3.13,1.24
			c-0.19,0-0.38-0.01-0.56-0.03c0,0-0.01,0-0.01,0c-16.69,0-30.2,13.38-30.2,29.83c0,16.45,13.52,29.83,30.15,29.83
			c1.04,0,2.1-0.06,3.25-0.18C183.98,531.76,184.12,531.75,184.28,531.75z"/>
		<path class="st4" d="M158.09,440.66v35.58c6.04-5.16,13.89-8.3,22.48-8.3c0.24,0,0.48,0.03,0.72,0.04v-10.59
			c0-5.69,0.45-11.27,1.28-16.73H158.09z"/>
		<path class="st4" d="M406.11,440.66c0.83,5.46,1.28,11.04,1.28,16.73v10.59c0.24,0,0.47-0.03,0.71-0.03
			c8.93,0,17.05,3.39,23.17,8.91v-36.19H406.11z"/>
		<path class="st2" d="M158.09,480.59c-0.62,0-1.24-0.13-1.82-0.4c-1.54-0.71-2.53-2.25-2.53-3.95v-35.58c0-2.4,1.95-4.35,4.35-4.35
			h24.48c1.27,0,2.48,0.55,3.3,1.51c0.83,0.96,1.19,2.23,1,3.49c-0.82,5.39-1.23,10.8-1.23,16.08v10.59c0,1.16-0.47,2.28-1.3,3.1
			c-0.83,0.82-1.94,1.24-3.13,1.25c-0.19,0-0.38-0.02-0.57-0.03c-0.01,0-0.02,0-0.03,0c-7.26,0-14.23,2.58-19.7,7.25
			C160.11,480.23,159.1,480.59,158.09,480.59z M162.43,445.01v23.06c4.49-2.36,9.42-3.83,14.5-4.31v-6.37
			c0-4.08,0.23-8.22,0.68-12.38H162.43z"/>
		<path class="st2" d="M431.28,481.2c-1.05,0-2.1-0.39-2.91-1.12c-5.58-5.03-12.77-7.79-20.26-7.79c-0.26,0.02-0.45,0.03-0.64,0.03
			c-1.18,0-2.29-0.43-3.13-1.24c-0.83-0.82-1.3-1.94-1.3-3.1v-10.59c0-5.27-0.42-10.68-1.23-16.08c-0.19-1.25,0.17-2.53,1-3.49
			c0.82-0.96,2.03-1.51,3.3-1.51h25.17c2.4,0,4.35,1.95,4.35,4.35v36.19c0,1.72-1.01,3.27-2.58,3.97
			C432.48,481.08,431.88,481.2,431.28,481.2z M411.75,463.76c5.35,0.5,10.51,2.1,15.19,4.68v-23.44h-15.87
			c0.45,4.16,0.68,8.31,0.68,12.38V463.76z"/>
		<path class="st4" d="M247.54,635.01c0,0,8.18,22.08,51.24,22.08s42.48-23.45,42.48-23.45h28.42c0,0,45.74,21.14,47.46,34.75
			s4.35,55.48,4.35,55.48h-254.3v-36.51l10.42-25.23l9.3-15.14l37.93-11.14L247.54,635.01z"/>
		<path class="st4" d="M375.44,440.66h58.41c4.25,0,7.71-3.45,7.71-7.71v-42.96c0-48.95-39.68-88.63-88.63-88.63h-3.61
			c-12.77,0-23.12,10.35-23.12,23.12v66.93C326.21,418.61,348.25,440.66,375.44,440.66z"/>
		<path class="st4" d="M257.16,440.66H155.55c-4.27,0-7.74-3.47-7.74-7.74v-35.35c0-53.14,43.08-96.21,96.21-96.21h59.32
			c12.75,0,23.09,10.34,23.09,23.09v46.94C326.43,409.65,295.41,440.66,257.16,440.66z"/>
		<g>
			<path class="st2" d="M433.86,445.01h-58.41c-29.55,0-53.59-24.04-53.59-53.59v-66.94c0-15.15,12.32-27.47,27.47-27.47h3.61
				c51.27,0,92.98,41.71,92.98,92.98v42.97C445.91,439.6,440.5,445.01,433.86,445.01z M349.32,305.71
				c-10.35,0-18.77,8.42-18.77,18.77v66.93c0,24.76,20.14,44.89,44.89,44.89h58.41c1.86,0,3.36-1.51,3.36-3.36v-42.96
				c0-46.47-37.81-84.28-84.28-84.28H349.32z"/>
			<path class="st2" d="M257.16,445.01H155.55c-6.66,0-12.09-5.42-12.09-12.09v-35.35c0-55.45,45.11-100.56,100.56-100.56h59.32
				c15.13,0,27.44,12.31,27.44,27.44v46.93C330.77,411.98,297.75,445.01,257.16,445.01z M244.02,305.71
				c-50.66,0-91.86,41.21-91.86,91.86v35.35c0,1.87,1.52,3.39,3.39,3.39h101.61c35.8,0,64.92-29.13,64.92-64.92v-46.94
				c0-10.34-8.41-18.74-18.74-18.74H244.02z"/>
			<path class="st2" d="M421.49,728.22h-254.3c-2.4,0-4.35-1.95-4.35-4.35v-30.36c0-34.19,27.81-62.01,62-62.01h13.84v-21.1
				c0-1.51,0.78-2.91,2.07-3.7c1.29-0.79,2.89-0.86,4.24-0.18c15.37,7.78,31.97,11.72,49.34,11.72c17.36,0,33.95-3.94,49.31-11.7
				c1.35-0.68,2.96-0.62,4.24,0.18c1.29,0.79,2.07,2.2,2.07,3.7v21.08h13.87c34.19,0,62.01,27.81,62.01,62.01v30.36
				C425.84,726.28,423.89,728.22,421.49,728.22z M171.54,719.53h245.6v-26.01c0-29.4-23.92-53.31-53.31-53.31h-18.32
				c-0.05,0-0.08,0-0.13,0c-1.3,0-2.54-0.59-3.37-1.59c-0.83-1.01-1.16-2.33-0.91-3.61c0.1-0.54,0.16-0.98,0.16-1.37v-16.37
				c-14.79,6.42-30.54,9.67-46.93,9.67c-16.39,0-32.15-3.25-46.95-9.69v16.45c0,0.35,0.05,0.76,0.16,1.3
				c0.25,1.28-0.08,2.6-0.9,3.61c-0.83,1.01-2.06,1.59-3.36,1.59h-18.43c-29.39,0-53.31,23.91-53.31,53.31L171.54,719.53
				L171.54,719.53z"/>
		</g>
	</g>
</g>
</svg>
